# This file uses centimeters as units for non-parametric coordinates.

mtllib tomato.mtl
g default
v 0.148778 -1.982208 8.986856
v 0.126558 -1.982208 8.943247
v 0.091950 -1.982208 8.908639
v 0.048341 -1.982208 8.886419
v 0.293893 -1.945576 8.939706
v 0.250000 -1.945576 8.853561
v 0.181636 -1.945576 8.785197
v 0.095492 -1.945576 8.741304
v 0.431771 -1.885526 8.894906
v 0.367286 -1.885526 8.768348
v 0.266849 -1.885526 8.667911
v 0.140291 -1.885526 8.603426
v 0.559017 -1.803536 8.853561
v 0.475529 -1.803536 8.689706
v 0.345492 -1.803536 8.559669
v 0.181636 -1.803536 8.476180
v 0.672499 -1.701626 8.816689
v 0.572062 -1.701626 8.619570
v 0.415627 -1.701626 8.463135
v 0.218508 -1.701626 8.362698
v 0.769421 -1.582304 8.785197
v 0.654509 -1.582304 8.559669
v 0.475529 -1.582304 8.380688
v 0.250000 -1.582304 8.265776
v 0.847398 -1.448510 8.759861
v 0.720840 -1.448510 8.511476
v 0.523721 -1.448510 8.314357
v 0.275336 -1.448510 8.187799
v 0.904509 -1.303536 8.741304
v 0.769421 -1.303536 8.476180
v 0.559017 -1.303536 8.265776
v 0.293893 -1.303536 8.130688
v 0.939348 -1.150954 8.729985
v 0.799057 -1.150954 8.454648
v 0.580549 -1.150954 8.236140
v 0.305213 -1.150954 8.095849
v 0.951057 -0.994519 8.726180
v 0.809018 -0.994519 8.447412
v 0.587786 -0.994519 8.226180
v 0.309017 -0.994519 8.084140
v 0.939348 -0.838085 8.729985
v 0.799057 -0.838085 8.454648
v 0.580549 -0.838085 8.236140
v 0.305213 -0.838085 8.095849
v 0.904509 -0.685502 8.741304
v 0.769421 -0.685502 8.476180
v 0.559017 -0.685502 8.265776
v 0.293893 -0.685502 8.130688
v 0.847398 -0.540529 8.759861
v 0.720840 -0.540529 8.511476
v 0.523721 -0.540529 8.314357
v 0.275336 -0.540529 8.187799
v 0.769421 -0.406734 8.785197
v 0.654509 -0.406734 8.559669
v 0.475529 -0.406734 8.380688
v 0.250000 -0.406734 8.265776
v 0.672499 -0.287413 8.816689
v 0.572062 -0.287413 8.619570
v 0.415627 -0.287413 8.463135
v 0.218508 -0.287413 8.362698
v 0.559017 -0.185502 8.853561
v 0.475529 -0.185502 8.689706
v 0.345492 -0.185502 8.559669
v 0.181636 -0.185502 8.476180
v 0.431771 -0.103513 8.894906
v 0.367286 -0.103513 8.768348
v 0.266849 -0.103513 8.667911
v 0.140291 -0.103513 8.603426
v 0.293893 -0.043463 8.939706
v 0.250000 -0.043463 8.853561
v 0.181636 -0.043463 8.785197
v 0.095492 -0.043463 8.741304
v 0.148778 -0.006831 8.986856
v 0.126558 -0.006831 8.943247
v 0.091950 -0.006831 8.908639
v 0.048341 -0.006831 8.886419
v 0.156434 -1.982208 9.035197
v 0.309017 -1.945576 9.035197
v 0.453991 -1.885526 9.035197
v 0.587785 -1.803536 9.035197
v 0.707107 -1.701626 9.035197
v 0.809017 -1.582304 9.035197
v 0.891007 -1.448510 9.035197
v 0.951057 -1.303536 9.035197
v 0.987688 -1.150954 9.035197
v 1.000000 -0.994128 9.035197
v 0.987688 -0.838076 9.035197
v 0.951057 -0.685362 9.035197
v 0.891007 -0.540916 9.035197
v 0.809017 -0.407072 9.035197
v 0.707107 -0.287523 9.035197
v 0.587785 -0.184812 9.035197
v 0.453991 -0.103807 9.035197
v 0.309017 -0.043980 9.035197
v 0.156434 -0.006997 9.035197
v 0.000000 -1.982208 8.878763
v 0.000000 -1.945576 8.726180
v 0.000000 -1.994519 9.035197
v 0.000000 -1.885526 8.581206
v 0.000000 -1.803536 8.447412
v 0.000000 -1.701626 8.328090
v 0.000000 -1.582304 8.226180
v 0.000000 -1.448510 8.144190
v 0.000000 -1.303536 8.084140
v 0.000000 -1.150954 8.047508
v 0.000000 -0.994565 8.035197
v 0.000000 -0.838864 8.047508
v 0.000000 -0.685425 8.084140
v 0.000000 -0.540558 8.144190
v 0.000000 -0.406719 8.226180
v 0.000000 -0.287561 8.328090
v 0.000000 -0.185465 8.447412
v 0.000000 -0.103471 8.581206
v 0.000000 -0.043525 8.726180
v 0.000000 -0.006972 8.878763
v 0.000000 0.005333 9.035197
vt 0.756983 0.029309
vt 0.773871 0.040990
vt 0.725632 0.056019
vt 0.691374 0.033050
vt 0.795310 0.051308
vt 0.767991 0.076597
vt 0.819228 0.059245
vt 0.814955 0.093036
vt 0.216113 0.980632
vt 0.265491 0.954798
vt 0.054736 0.423570
vt 0.110102 0.418408
vt 0.678139 0.070947
vt 0.626840 0.037758
vt 0.739650 0.101033
vt 0.807402 0.126035
vt 0.310344 0.923132
vt 0.164767 0.420624
vt 0.631687 0.086015
vt 0.564252 0.043989
vt 0.710042 0.124522
vt 0.795650 0.157723
vt 0.349567 0.886416
vt 0.217386 0.430162
vt 0.586447 0.101397
vt 0.504201 0.052056
vt 0.679122 0.147094
vt 0.779364 0.187820
vt 0.382195 0.845552
vt 0.266663 0.446788
vt 0.542516 0.117222
vt 0.447125 0.062139
vt 0.646906 0.168816
vt 0.758488 0.216170
vt 0.407423 0.801548
vt 0.311385 0.470092
vt 0.499951 0.133579
vt 0.393388 0.074344
vt 0.613425 0.189756
vt 0.733086 0.242689
vt 0.424631 0.755486
vt 0.350451 0.499502
vt 0.458777 0.150535
vt 0.343367 0.088755
vt 0.578703 0.209977
vt 0.703293 0.267330
vt 0.433396 0.708501
vt 0.382897 0.534291
vt 0.418943 0.168125
vt 0.297556 0.105494
vt 0.542751 0.229520
vt 0.669309 0.290089
vt 0.433500 0.661750
vt 0.407927 0.573605
vt 0.380360 0.186301
vt 0.254777 0.123869
vt 0.505559 0.248400
vt 0.631447 0.311021
vt 0.424946 0.616397
vt 0.127034 0.060473
vt 0.343108 0.205139
vt 0.216033 0.144424
vt 0.467044 0.266584
vt 0.588755 0.329484
vt 0.407997 0.573740
vt 0.433467 0.661847
vt 0.307235 0.224714
vt 0.182390 0.167397
vt 0.427242 0.284146
vt 0.542249 0.345770
vt 0.382884 0.534192
vt 0.433359 0.708637
vt 0.272664 0.244998
vt 0.152783 0.192161
vt 0.386215 0.301166
vt 0.492776 0.360411
vt 0.350435 0.499441
vt 0.424538 0.755472
vt 0.239403 0.266019
vt 0.127615 0.218780
vt 0.343866 0.317602
vt 0.439318 0.372723
vt 0.311356 0.470029
vt 0.407319 0.801546
vt 0.207454 0.287841
vt 0.107363 0.247285
vt 0.300144 0.333503
vt 0.382404 0.382868
vt 0.266639 0.446781
vt 0.382097 0.845611
vt 0.176706 0.310482
vt 0.090989 0.277366
vt 0.255071 0.348957
vt 0.322460 0.390985
vt 0.217341 0.430115
vt 0.349522 0.886694
vt 0.147247 0.334038
vt 0.079426 0.309121
vt 0.208730 0.364083
vt 0.259937 0.397255
vt 0.164717 0.420587
vt 0.310209 0.923126
vt 0.119020 0.358508
vt 0.072161 0.342130
vt 0.161284 0.379045
vt 0.195430 0.401988
vt 0.110058 0.418414
vt 0.265329 0.954720
vt 0.091601 0.383743
vt 0.067722 0.375813
vt 0.112985 0.394051
vt 0.129805 0.405721
vt 0.054699 0.423610
vt 0.215972 0.980644
vt 0.000033 0.435982
vt -0.000000 0.436036
vt 0.822313 0.025590
vt 0.163425 1.000000
vt 0.064411 0.409378
vt 0.163281 1.000005
vt 0.140285 0.417649
vt 0.217937 0.425520
vt 0.296156 0.431606
vt 0.373688 0.434963
vt 0.449335 0.434960
vt 0.521821 0.431220
vt 0.590329 0.423515
vt 0.653916 0.411852
vt 0.709444 0.394608
vt 0.757152 0.373632
vt 0.799586 0.349888
vt 0.833826 0.322400
vt 0.859619 0.291539
vt 0.876780 0.257711
vt 0.885280 0.221386
vt 0.885329 0.183118
vt 0.877483 0.143570
vt 0.862844 0.103532
vt 0.843368 0.063913
vt 0.043592 0.371128
vt 0.024436 0.331666
vt 0.010519 0.291984
vt 0.001771 0.252565
vt 0.000000 0.213732
vt 0.008878 0.177350
vt 0.026218 0.143484
vt 0.052103 0.112726
vt 0.086738 0.085306
vt 0.424955 0.616585
vt 0.175377 0.039217
vt 0.232969 0.023354
vt 0.296327 0.011504
vt 0.364721 0.003749
vt 0.437245 0.000000
vt 0.512862 0.000019
vt 0.590433 0.003397
vt 0.668724 0.009501
vt 0.746436 0.017372
vn 0.190555 -0.979722 -0.061915
vn 0.162095 -0.979722 -0.117770
vn 0.269870 -0.942723 -0.196072
vn 0.317252 -0.942722 -0.103081
vn 0.117769 -0.979722 -0.162095
vn 0.196072 -0.942723 -0.269870
vn 0.061915 -0.979722 -0.190555
vn 0.103081 -0.942723 -0.317251
vn 0.031718 -0.979229 -0.200260
vn 0.052760 -0.941410 -0.333113
vn 0.200260 -0.979229 -0.031718
vn 0.333113 -0.941409 -0.052760
vn 0.380846 -0.882266 -0.276701
vn 0.447712 -0.882266 -0.145470
vn 0.276701 -0.882266 -0.380846
vn 0.145470 -0.882266 -0.447711
vn 0.074353 -0.879824 -0.469449
vn 0.469449 -0.879824 -0.074353
vn 0.485138 -0.800252 -0.352474
vn 0.570314 -0.800252 -0.185306
vn 0.352473 -0.800252 -0.485138
vn 0.185306 -0.800252 -0.570314
vn 0.094552 -0.796667 -0.596977
vn 0.596978 -0.796667 -0.094551
vn 0.578713 -0.698789 -0.420460
vn 0.680318 -0.698789 -0.221048
vn 0.420459 -0.698789 -0.578713
vn 0.221049 -0.698788 -0.680318
vn 0.112577 -0.694346 -0.710781
vn 0.710781 -0.694346 -0.112575
vn 0.658808 -0.580401 -0.478652
vn 0.774475 -0.580401 -0.251641
vn 0.478652 -0.580401 -0.658808
vn 0.251642 -0.580401 -0.774475
vn 0.127918 -0.575633 -0.807641
vn 0.807641 -0.575633 -0.127916
vn 0.723291 -0.447994 -0.525502
vn 0.850280 -0.447994 -0.276272
vn 0.525501 -0.447994 -0.723291
vn 0.276272 -0.447994 -0.850279
vn 0.140203 -0.443569 -0.885206
vn 0.885206 -0.443569 -0.140201
vn 0.770524 -0.304789 -0.559819
vn 0.905806 -0.304789 -0.294313
vn 0.559818 -0.304789 -0.770524
vn 0.294314 -0.304789 -0.905805
vn 0.149161 -0.301379 -0.941765
vn 0.941766 -0.301379 -0.149159
vn 0.799335 -0.154249 -0.580751
vn 0.939702 -0.154200 -0.305260
vn 0.580751 -0.154249 -0.799335
vn 0.305325 -0.154254 -0.939671
vn 0.154610 -0.152405 -0.976150
vn 0.976171 -0.152298 -0.154583
vn 0.809017 0.000000 -0.587785
vn 0.951057 -0.000032 -0.309015
vn 0.587785 -0.000000 -0.809017
vn 0.309088 0.000004 -0.951034
vn 0.156386 -0.000009 -0.987696
vn 0.987689 0.000060 -0.156433
vn 0.799335 0.154249 -0.580751
vn 0.939651 0.154279 -0.305374
vn 0.580751 0.154249 -0.799335
vn 0.305224 0.154303 -0.939696
vn 0.154430 0.152257 -0.976201
vn 0.976134 0.152459 -0.154657
vn 0.770524 0.304789 -0.559819
vn 0.905777 0.304862 -0.294325
vn 0.559818 0.304789 -0.770524
vn 0.294175 0.304599 -0.905914
vn 0.149053 0.301025 -0.941895
vn 0.941716 0.301562 -0.149104
vn 0.723291 0.447994 -0.525502
vn 0.850221 0.448204 -0.276114
vn 0.525501 0.447994 -0.723291
vn 0.276283 0.448020 -0.850262
vn 0.140210 0.443612 -0.885183
vn 0.885135 0.443847 -0.139773
vn 0.658808 0.580401 -0.478652
vn 0.774619 0.580351 -0.251314
vn 0.478652 0.580401 -0.658808
vn 0.251603 0.580439 -0.774459
vn 0.127823 0.575705 -0.807605
vn 0.807908 0.575398 -0.127285
vn 0.578712 0.698789 -0.420459
vn 0.680685 0.698414 -0.221103
vn 0.420459 0.698789 -0.578713
vn 0.220956 0.698816 -0.680319
vn 0.112385 0.694354 -0.710804
vn 0.711488 0.693586 -0.112799
vn 0.485138 0.800252 -0.352474
vn 0.570330 0.800121 -0.185824
vn 0.352473 0.800252 -0.485139
vn 0.185295 0.800166 -0.570439
vn 0.094547 0.796498 -0.597203
vn 0.596878 0.796614 -0.095614
vn 0.380846 0.882266 -0.276701
vn 0.446865 0.882755 -0.145104
vn 0.276701 0.882266 -0.380846
vn 0.145512 0.882286 -0.447659
vn 0.074434 0.879876 -0.469338
vn 0.467866 0.880734 -0.073547
vn 0.269870 0.942722 -0.196073
vn 0.317483 0.942838 -0.101302
vn 0.196072 0.942722 -0.269871
vn 0.102812 0.942785 -0.317154
vn 0.052214 0.941504 -0.332931
vn 0.333659 0.941410 -0.049183
vn 0.161937 0.979762 -0.117654
vn 0.191186 0.979730 -0.059806
vn 0.117654 0.979762 -0.161937
vn 0.061016 0.979799 -0.190450
vn 0.030003 0.979286 -0.200249
vn 0.201705 0.979058 -0.027586
vn 0.050805 -0.997416 -0.050805
vn 0.049856 0.997518 -0.049730
vn 0.000000 0.000000 1.000000
vn 0.000000 0.000000 1.000000
vn 0.000000 0.000000 1.000000
vn 0.000000 0.000000 1.000000
vn 0.000000 0.000000 1.000000
vn 0.000000 0.000000 1.000000
vn 0.000000 0.000000 1.000000
vn 0.000000 0.000000 1.000000
vn 0.000000 0.000000 1.000000
vn 0.000000 0.000000 1.000000
vn 0.000000 0.000000 1.000000
vn 0.000000 0.000000 1.000000
vn 0.000000 0.000000 1.000000
vn 0.000000 0.000000 1.000000
vn 0.000000 0.000000 1.000000
vn 0.000000 0.000000 1.000000
vn 0.000000 0.000000 1.000000
vn 0.000000 0.000000 1.000000
vn 0.000000 0.000000 1.000000
vn 0.000000 0.000000 1.000000
vn 0.000000 0.000000 1.000000
vn 0.000000 0.000000 1.000000
vn 0.000000 0.000000 1.000000
vn 0.000000 0.000000 1.000000
vn 0.000000 0.000000 1.000000
vn 0.000000 0.000000 1.000000
vn 0.000000 0.000000 1.000000
vn 0.000000 0.000000 1.000000
vn 0.000000 0.000000 1.000000
vn 0.000000 0.000000 1.000000
vn 0.000000 0.000000 1.000000
vn 0.000000 0.000000 1.000000
vn 0.000000 0.000000 1.000000
vn 0.000000 0.000000 1.000000
vn 0.000000 0.000000 1.000000
vn 0.000000 0.000000 1.000000
vn 0.000000 0.000000 1.000000
vn 0.000000 0.000000 1.000000
vn 0.000000 0.000000 1.000000
vn -1.000000 0.000000 0.000000
vn -1.000000 0.000000 0.000000
vn -1.000000 0.000000 0.000000
vn -1.000000 0.000000 0.000000
vn -1.000000 0.000000 0.000000
vn -1.000000 0.000000 0.000000
vn -1.000000 0.000000 0.000000
vn -1.000000 0.000000 0.000000
vn -1.000000 0.000000 0.000000
vn -1.000000 0.000000 0.000000
vn -1.000000 0.000000 0.000000
vn -1.000000 0.000000 0.000000
vn -1.000000 0.000000 0.000000
vn -1.000000 0.000000 0.000000
vn -1.000000 0.000000 0.000000
vn -1.000000 0.000000 0.000000
vn -1.000000 0.000000 0.000000
vn -1.000000 0.000000 0.000000
vn -1.000000 0.000000 0.000000
vn -1.000000 0.000000 0.000000
vn -1.000000 0.000000 0.000000
vn -1.000000 0.000000 0.000000
vn -1.000000 0.000000 0.000000
vn -1.000000 0.000000 0.000000
vn -1.000000 0.000000 0.000000
vn -1.000000 0.000000 0.000000
vn -1.000000 0.000000 0.000000
vn -1.000000 0.000000 0.000000
vn -1.000000 0.000000 0.000000
vn -1.000000 0.000000 0.000000
vn -1.000000 0.000000 0.000000
vn -1.000000 0.000000 0.000000
vn -1.000000 0.000000 0.000000
vn -1.000000 0.000000 0.000000
vn -1.000000 0.000000 0.000000
vn -1.000000 0.000000 0.000000
vn -1.000000 0.000000 0.000000
vn -1.000000 0.000000 0.000000
vn -1.000000 0.000000 0.000000
s 1
g Tomato1
usemtl lambert9SG
f 1/1/1 2/2/2 6/3/3 5/4/4
f 2/2/2 3/5/5 7/6/6 6/3/3
f 3/5/5 4/7/7 8/8/8 7/6/6
f 4/7/7 96/139/9 97/138/10 8/8/8
f 77/158/11 1/1/1 5/4/4 78/157/12
f 5/4/4 6/3/3 10/13/13 9/14/14
f 6/3/3 7/6/6 11/15/15 10/13/13
f 7/6/6 8/8/8 12/16/16 11/15/15
f 8/8/8 97/138/10 99/137/17 12/16/16
f 78/157/12 5/4/4 9/14/14 79/156/18
f 9/14/14 10/13/13 14/19/19 13/20/20
f 10/13/13 11/15/15 15/21/21 14/19/19
f 11/15/15 12/16/16 16/22/22 15/21/21
f 12/16/16 99/137/17 100/136/23 16/22/22
f 79/156/18 9/14/14 13/20/20 80/155/24
f 13/20/20 14/19/19 18/25/25 17/26/26
f 14/19/19 15/21/21 19/27/27 18/25/25
f 15/21/21 16/22/22 20/28/28 19/27/27
f 16/22/22 100/136/23 101/135/29 20/28/28
f 80/155/24 13/20/20 17/26/26 81/154/30
f 17/26/26 18/25/25 22/31/31 21/32/32
f 18/25/25 19/27/27 23/33/33 22/31/31
f 19/27/27 20/28/28 24/34/34 23/33/33
f 20/28/28 101/135/29 102/134/35 24/34/34
f 81/154/30 17/26/26 21/32/32 82/153/36
f 21/32/32 22/31/31 26/37/37 25/38/38
f 22/31/31 23/33/33 27/39/39 26/37/37
f 23/33/33 24/34/34 28/40/40 27/39/39
f 24/34/34 102/134/35 103/133/41 28/40/40
f 82/153/36 21/32/32 25/38/38 83/152/42
f 25/38/38 26/37/37 30/43/43 29/44/44
f 26/37/37 27/39/39 31/45/45 30/43/43
f 27/39/39 28/40/40 32/46/46 31/45/45
f 28/40/40 103/133/41 104/132/47 32/46/46
f 83/152/42 25/38/38 29/44/44 84/151/48
f 29/44/44 30/43/43 34/49/49 33/50/50
f 30/43/43 31/45/45 35/51/51 34/49/49
f 31/45/45 32/46/46 36/52/52 35/51/51
f 32/46/46 104/132/47 105/131/53 36/52/52
f 84/151/48 29/44/44 33/50/50 85/150/54
f 33/50/50 34/49/49 38/55/55 37/56/56
f 34/49/49 35/51/51 39/57/57 38/55/55
f 35/51/51 36/52/52 40/58/58 39/57/57
f 36/52/52 105/131/53 106/130/59 40/58/58
f 85/150/54 33/50/50 37/56/56 86/60/60
f 37/56/56 38/55/55 42/61/61 41/62/62
f 38/55/55 39/57/57 43/63/63 42/61/61
f 39/57/57 40/58/58 44/64/64 43/63/63
f 40/58/58 106/130/59 107/129/65 44/64/64
f 86/60/60 37/56/56 41/62/62 87/148/66
f 41/62/62 42/61/61 46/67/67 45/68/68
f 42/61/61 43/63/63 47/69/69 46/67/67
f 43/63/63 44/64/64 48/70/70 47/69/69
f 44/64/64 107/129/65 108/128/71 48/70/70
f 87/148/66 41/62/62 45/68/68 88/147/72
f 45/68/68 46/67/67 50/73/73 49/74/74
f 46/67/67 47/69/69 51/75/75 50/73/73
f 47/69/69 48/70/70 52/76/76 51/75/75
f 48/70/70 108/128/71 109/127/77 52/76/76
f 88/147/72 45/68/68 49/74/74 89/146/78
f 49/74/74 50/73/73 54/79/79 53/80/80
f 50/73/73 51/75/75 55/81/81 54/79/79
f 51/75/75 52/76/76 56/82/82 55/81/81
f 52/76/76 109/127/77 110/126/83 56/82/82
f 89/146/78 49/74/74 53/80/80 90/145/84
f 53/80/80 54/79/79 58/85/85 57/86/86
f 54/79/79 55/81/81 59/87/87 58/85/85
f 55/81/81 56/82/82 60/88/88 59/87/87
f 56/82/82 110/126/83 111/125/89 60/88/88
f 90/145/84 53/80/80 57/86/86 91/144/90
f 57/86/86 58/85/85 62/91/91 61/92/92
f 58/85/85 59/87/87 63/93/93 62/91/91
f 59/87/87 60/88/88 64/94/94 63/93/93
f 60/88/88 111/125/89 112/124/95 64/94/94
f 91/144/90 57/86/86 61/92/92 92/143/96
f 61/92/92 62/91/91 66/97/97 65/98/98
f 62/91/91 63/93/93 67/99/99 66/97/97
f 63/93/93 64/94/94 68/100/100 67/99/99
f 64/94/94 112/124/95 113/123/101 68/100/100
f 92/143/96 61/92/92 65/98/98 93/142/102
f 65/98/98 66/97/97 70/103/103 69/104/104
f 66/97/97 67/99/99 71/105/105 70/103/103
f 67/99/99 68/100/100 72/106/106 71/105/105
f 68/100/100 113/123/101 114/122/107 72/106/106
f 93/142/102 65/98/98 69/104/104 94/141/108
f 69/104/104 70/103/103 74/109/109 73/110/110
f 70/103/103 71/105/105 75/111/111 74/109/109
f 71/105/105 72/106/106 76/112/112 75/111/111
f 72/106/106 114/122/107 115/121/113 76/112/112
f 94/141/108 69/104/104 73/110/110 95/140/114
f 2/2/2 1/1/1 98/117/115
f 3/5/5 2/2/2 98/117/115
f 4/7/7 3/5/5 98/117/115
f 96/139/9 4/7/7 98/117/115
f 1/1/1 77/158/11 98/117/115
f 73/110/110 74/109/109 116/119/116
f 74/109/109 75/111/111 116/119/116
f 75/111/111 76/112/112 116/119/116
f 76/112/112 115/121/113 116/119/116
f 95/140/114 73/110/110 116/119/116
s off
usemtl lambert8SG
f 98/115/117 77/11/118 95/114/119 116/120/120
f 77/11/121 78/12/122 94/108/123 95/114/124
f 78/12/125 79/18/126 93/102/127 94/108/128
f 79/18/129 80/24/130 92/96/131 93/102/132
f 80/24/133 81/30/134 91/90/135 92/96/136
f 81/30/137 82/36/138 90/84/139 91/90/140
f 82/36/141 83/42/142 89/78/143 90/84/144
f 83/42/145 84/48/146 88/72/147 89/78/148
f 84/48/149 85/54/150 87/66/151 88/72/152
f 85/54/153 86/149/154 87/66/155
f 97/10/156 96/9/157 115/113/158 114/107/159
f 96/9/160 98/118/161 116/116/162 115/113/163
f 99/17/164 97/10/165 114/107/166 113/101/167
f 100/23/168 99/17/169 113/101/170 112/95/171
f 101/29/172 100/23/173 112/95/174 111/89/175
f 102/35/176 101/29/177 111/89/178 110/83/179
f 103/41/180 102/35/181 110/83/182 109/77/183
f 104/47/184 103/41/185 109/77/186 108/71/187
f 105/53/188 104/47/189 108/71/190 107/65/191
f 106/59/192 105/53/193 107/65/194
