# This file uses centimeters as units for non-parametric coordinates.

mtllib watermelon.mtl
g default
v 0.148778 -1.982208 3.402279
v 0.126558 -1.982208 3.358670
v 0.091950 -1.982208 3.324062
v 0.048341 -1.982208 3.301842
v 0.293893 -1.945576 3.355129
v 0.250000 -1.945576 3.268985
v 0.181636 -1.945576 3.200620
v 0.095492 -1.945576 3.156728
v 0.431771 -1.885526 3.310330
v 0.367286 -1.885526 3.183771
v 0.266849 -1.885526 3.083334
v 0.140291 -1.885526 3.018850
v 0.559017 -1.803536 3.268985
v 0.475529 -1.803536 3.105129
v 0.345492 -1.803536 2.975092
v 0.181636 -1.803536 2.891603
v 0.672499 -1.701626 3.232112
v 0.572062 -1.701626 3.034993
v 0.415627 -1.701626 2.878559
v 0.218508 -1.701626 2.778122
v 0.769421 -1.582304 3.200620
v 0.654509 -1.582304 2.975092
v 0.475529 -1.582304 2.796112
v 0.250000 -1.582304 2.681199
v 0.847398 -1.448510 3.175284
v 0.720840 -1.448510 2.926900
v 0.523721 -1.448510 2.729781
v 0.275336 -1.448510 2.603222
v 0.904509 -1.303536 3.156728
v 0.769421 -1.303536 2.891603
v 0.559017 -1.303536 2.681199
v 0.293893 -1.303536 2.546111
v 0.939348 -1.150954 3.145408
v 0.799057 -1.150954 2.870071
v 0.580549 -1.150954 2.651563
v 0.305213 -1.150954 2.511272
v 0.951057 -0.994519 3.141603
v 0.809018 -0.994519 2.862835
v 0.587786 -0.994519 2.641603
v 0.309017 -0.994519 2.499563
v 0.939348 -0.838085 3.145408
v 0.799057 -0.838085 2.870071
v 0.580549 -0.838085 2.651563
v 0.305213 -0.838085 2.511272
v 0.904509 -0.685502 3.156728
v 0.769421 -0.685502 2.891603
v 0.559017 -0.685502 2.681199
v 0.293893 -0.685502 2.546111
v 0.847398 -0.540529 3.175284
v 0.720840 -0.540529 2.926900
v 0.523721 -0.540529 2.729781
v 0.275336 -0.540529 2.603222
v 0.769421 -0.406734 3.200620
v 0.654509 -0.406734 2.975092
v 0.475529 -0.406734 2.796112
v 0.250000 -0.406734 2.681199
v 0.672499 -0.287413 3.232112
v 0.572062 -0.287413 3.034993
v 0.415627 -0.287413 2.878559
v 0.218508 -0.287413 2.778122
v 0.559017 -0.185502 3.268985
v 0.475529 -0.185502 3.105129
v 0.345492 -0.185502 2.975092
v 0.181636 -0.185502 2.891603
v 0.431771 -0.103513 3.310330
v 0.367286 -0.103513 3.183771
v 0.266849 -0.103513 3.083334
v 0.140291 -0.103513 3.018850
v 0.293893 -0.043463 3.355129
v 0.250000 -0.043463 3.268985
v 0.181636 -0.043463 3.200620
v 0.095492 -0.043463 3.156728
v 0.148778 -0.006831 3.402279
v 0.126558 -0.006831 3.358670
v 0.091950 -0.006831 3.324062
v 0.048341 -0.006831 3.301842
v 0.156434 -1.982208 3.450620
v 0.309017 -1.945576 3.450620
v 0.453991 -1.885526 3.450620
v 0.587785 -1.803536 3.450620
v 0.707107 -1.701626 3.450620
v 0.809017 -1.582304 3.450620
v 0.891007 -1.448510 3.450620
v 0.951057 -1.303536 3.450620
v 0.987688 -1.150954 3.450620
v 1.000000 -0.994128 3.450620
v 0.987688 -0.838076 3.450620
v 0.951057 -0.685362 3.450620
v 0.891007 -0.540916 3.450620
v 0.809017 -0.407072 3.450620
v 0.707107 -0.287523 3.450620
v 0.587785 -0.184812 3.450620
v 0.453991 -0.103807 3.450620
v 0.309017 -0.043980 3.450620
v 0.156434 -0.006997 3.450620
v 0.000000 -1.982208 3.294186
v 0.000000 -1.945576 3.141603
v 0.000000 -1.994519 3.450620
v 0.000000 -1.885526 2.996630
v 0.000000 -1.803536 2.862835
v 0.000000 -1.701626 2.743513
v 0.000000 -1.582304 2.641603
v 0.000000 -1.448510 2.559613
v 0.000000 -1.303536 2.499563
v 0.000000 -1.150954 2.462932
v 0.000000 -0.994565 2.450620
v 0.000000 -0.838864 2.462932
v 0.000000 -0.685425 2.499563
v 0.000000 -0.540558 2.559613
v 0.000000 -0.406719 2.641603
v 0.000000 -0.287561 2.743513
v 0.000000 -0.185465 2.862835
v 0.000000 -0.103471 2.996630
v 0.000000 -0.043525 3.141603
v 0.000000 -0.006972 3.294186
v 0.000000 0.005333 3.450620
vt 0.032578 0.373900
vt 0.034011 0.353245
vt 0.067640 0.359734
vt 0.065301 0.400844
vt 0.032314 0.331918
vt 0.064437 0.317388
vt 0.027634 0.312004
vt 0.055914 0.277359
vt 0.484255 0.941737
vt 0.475308 0.885057
vt 0.002986 0.941816
vt 0.011899 0.885133
vt 0.100852 0.365979
vt 0.098288 0.426231
vt 0.096359 0.304267
vt 0.085067 0.245122
vt 0.460655 0.831204
vt 0.026519 0.831277
vt 0.133700 0.371580
vt 0.131578 0.449046
vt 0.128118 0.292771
vt 0.115106 0.216293
vt 0.440659 0.781507
vt 0.046486 0.781575
vt 0.166243 0.376268
vt 0.165147 0.468670
vt 0.159759 0.282891
vt 0.145963 0.191333
vt 0.415811 0.737187
vt 0.071308 0.737250
vt 0.198535 0.379858
vt 0.198936 0.484701
vt 0.191326 0.274546
vt 0.177546 0.170436
vt 0.386722 0.699337
vt 0.100373 0.699393
vt 0.230621 0.382223
vt 0.232862 0.496852
vt 0.222859 0.267646
vt 0.209756 0.153666
vt 0.354111 0.668889
vt 0.132967 0.668938
vt 0.262544 0.383282
vt 0.266819 0.504853
vt 0.254394 0.262114
vt 0.242498 0.141008
vt 0.318778 0.646591
vt 0.168286 0.646633
vt 0.294351 0.383019
vt 0.300678 0.508338
vt 0.285960 0.257898
vt 0.275676 0.132373
vt 0.281595 0.632994
vt 0.205461 0.633027
vt 0.326046 0.381531
vt 0.334435 0.508616
vt 0.317573 0.254987
vt 0.309192 0.127553
vt 0.243488 0.628432
vt 0.343054 0.637768
vt 0.357654 0.378693
vt 0.368059 0.504622
vt 0.349243 0.253457
vt 0.342979 0.127694
vt 0.205552 0.633017
vt 0.281696 0.633034
vt 0.389209 0.374406
vt 0.401249 0.495592
vt 0.381014 0.253210
vt 0.376800 0.131999
vt 0.168171 0.646637
vt 0.318909 0.646646
vt 0.420725 0.368733
vt 0.434002 0.482714
vt 0.412920 0.254130
vt 0.410688 0.139491
vt 0.132882 0.668956
vt 0.354110 0.668958
vt 0.452220 0.361642
vt 0.466184 0.465725
vt 0.444970 0.256309
vt 0.444571 0.151394
vt 0.100283 0.699425
vt 0.386728 0.699419
vt 0.483744 0.353063
vt 0.497603 0.444366
vt 0.477227 0.259716
vt 0.478334 0.167282
vt 0.071264 0.737293
vt 0.415866 0.737281
vt 0.515360 0.343026
vt 0.528489 0.419464
vt 0.509749 0.264248
vt 0.511893 0.186801
vt 0.046405 0.781628
vt 0.440902 0.781611
vt 0.547105 0.331387
vt 0.558494 0.390473
vt 0.542592 0.269733
vt 0.545185 0.209542
vt 0.026446 0.831338
vt 0.460650 0.831317
vt 0.579002 0.318176
vt 0.587524 0.358089
vt 0.575809 0.275920
vt 0.578179 0.234891
vt 0.011860 0.885199
vt 0.475239 0.885175
vt 0.611128 0.303751
vt 0.615795 0.323640
vt 0.609448 0.282461
vt 0.610902 0.261850
vt 0.002976 0.941885
vt 0.484263 0.941860
vt -0.000002 0.999931
vt 0.000000 1.000000
vt 0.000000 0.347063
vt 0.487278 0.999851
vt 0.643461 0.288785
vt 0.487279 0.999975
vt 0.615439 0.243956
vt 0.586297 0.198721
vt 0.555506 0.155154
vt 0.522900 0.114875
vt 0.488531 0.079131
vt 0.452686 0.048936
vt 0.415557 0.024923
vt 0.377579 0.007529
vt 0.338911 -0.000000
vt 0.300888 0.000215
vt 0.263103 0.005926
vt 0.226121 0.019571
vt 0.190349 0.040868
vt 0.156185 0.069464
vt 0.124009 0.104861
vt 0.094159 0.146360
vt 0.066897 0.192979
vt 0.042339 0.243340
vt 0.020306 0.295532
vt 0.623105 0.340126
vt 0.601049 0.391996
vt 0.576441 0.441629
vt 0.549689 0.488534
vt 0.520225 0.531507
vt 0.487833 0.566787
vt 0.453558 0.595340
vt 0.417825 0.616481
vt 0.380717 0.629865
vt 0.243672 0.628457
vt 0.304523 0.637988
vt 0.265995 0.627985
vt 0.227975 0.610902
vt 0.190859 0.586997
vt 0.154990 0.556794
vt 0.120652 0.521040
vt 0.088044 0.480718
vt 0.057235 0.437099
vt 0.028065 0.391836
vn 0.190555 -0.979722 -0.061915
vn 0.162095 -0.979722 -0.117770
vn 0.269870 -0.942723 -0.196072
vn 0.317252 -0.942722 -0.103081
vn 0.117769 -0.979722 -0.162095
vn 0.196072 -0.942723 -0.269870
vn 0.061915 -0.979722 -0.190555
vn 0.103081 -0.942723 -0.317251
vn 0.031718 -0.979229 -0.200260
vn 0.052760 -0.941410 -0.333113
vn 0.200260 -0.979229 -0.031718
vn 0.333113 -0.941409 -0.052760
vn 0.380846 -0.882266 -0.276701
vn 0.447712 -0.882266 -0.145470
vn 0.276701 -0.882266 -0.380846
vn 0.145470 -0.882266 -0.447711
vn 0.074353 -0.879824 -0.469449
vn 0.469449 -0.879824 -0.074353
vn 0.485138 -0.800252 -0.352474
vn 0.570314 -0.800252 -0.185306
vn 0.352473 -0.800252 -0.485138
vn 0.185306 -0.800252 -0.570314
vn 0.094552 -0.796667 -0.596977
vn 0.596978 -0.796667 -0.094551
vn 0.578713 -0.698789 -0.420460
vn 0.680318 -0.698789 -0.221048
vn 0.420459 -0.698789 -0.578713
vn 0.221049 -0.698788 -0.680318
vn 0.112577 -0.694346 -0.710781
vn 0.710781 -0.694346 -0.112575
vn 0.658808 -0.580401 -0.478652
vn 0.774475 -0.580401 -0.251641
vn 0.478652 -0.580401 -0.658808
vn 0.251642 -0.580401 -0.774475
vn 0.127918 -0.575633 -0.807641
vn 0.807641 -0.575633 -0.127916
vn 0.723291 -0.447994 -0.525502
vn 0.850280 -0.447994 -0.276272
vn 0.525501 -0.447994 -0.723291
vn 0.276272 -0.447994 -0.850279
vn 0.140203 -0.443569 -0.885206
vn 0.885206 -0.443569 -0.140201
vn 0.770524 -0.304789 -0.559819
vn 0.905806 -0.304789 -0.294313
vn 0.559818 -0.304789 -0.770524
vn 0.294314 -0.304789 -0.905805
vn 0.149161 -0.301379 -0.941765
vn 0.941766 -0.301379 -0.149159
vn 0.799335 -0.154249 -0.580751
vn 0.939702 -0.154200 -0.305260
vn 0.580751 -0.154249 -0.799335
vn 0.305325 -0.154254 -0.939671
vn 0.154610 -0.152405 -0.976150
vn 0.976171 -0.152298 -0.154583
vn 0.809017 0.000000 -0.587785
vn 0.951057 -0.000032 -0.309015
vn 0.587785 -0.000000 -0.809017
vn 0.309088 0.000004 -0.951034
vn 0.156386 -0.000009 -0.987696
vn 0.987689 0.000060 -0.156433
vn 0.799335 0.154249 -0.580751
vn 0.939651 0.154279 -0.305374
vn 0.580751 0.154249 -0.799335
vn 0.305224 0.154303 -0.939696
vn 0.154430 0.152257 -0.976201
vn 0.976134 0.152459 -0.154657
vn 0.770524 0.304789 -0.559819
vn 0.905777 0.304862 -0.294325
vn 0.559818 0.304789 -0.770524
vn 0.294175 0.304599 -0.905914
vn 0.149053 0.301025 -0.941895
vn 0.941716 0.301562 -0.149104
vn 0.723291 0.447994 -0.525502
vn 0.850221 0.448204 -0.276114
vn 0.525501 0.447994 -0.723291
vn 0.276283 0.448020 -0.850262
vn 0.140210 0.443612 -0.885183
vn 0.885135 0.443847 -0.139773
vn 0.658808 0.580401 -0.478652
vn 0.774619 0.580351 -0.251314
vn 0.478652 0.580401 -0.658808
vn 0.251603 0.580439 -0.774459
vn 0.127823 0.575705 -0.807605
vn 0.807908 0.575398 -0.127285
vn 0.578712 0.698789 -0.420459
vn 0.680685 0.698414 -0.221103
vn 0.420459 0.698789 -0.578713
vn 0.220956 0.698816 -0.680319
vn 0.112385 0.694354 -0.710804
vn 0.711488 0.693586 -0.112799
vn 0.485138 0.800252 -0.352474
vn 0.570330 0.800121 -0.185824
vn 0.352473 0.800252 -0.485139
vn 0.185295 0.800166 -0.570439
vn 0.094547 0.796498 -0.597203
vn 0.596878 0.796614 -0.095614
vn 0.380846 0.882266 -0.276701
vn 0.446865 0.882755 -0.145104
vn 0.276701 0.882266 -0.380846
vn 0.145512 0.882286 -0.447659
vn 0.074434 0.879876 -0.469338
vn 0.467866 0.880734 -0.073547
vn 0.269870 0.942722 -0.196073
vn 0.317483 0.942838 -0.101302
vn 0.196072 0.942722 -0.269871
vn 0.102812 0.942785 -0.317154
vn 0.052214 0.941504 -0.332931
vn 0.333659 0.941410 -0.049183
vn 0.161937 0.979762 -0.117654
vn 0.191186 0.979730 -0.059806
vn 0.117654 0.979762 -0.161937
vn 0.061016 0.979799 -0.190450
vn 0.030003 0.979286 -0.200249
vn 0.201705 0.979058 -0.027586
vn 0.050805 -0.997416 -0.050805
vn 0.049856 0.997518 -0.049730
vn 0.000000 0.000000 1.000000
vn 0.000000 0.000000 1.000000
vn 0.000000 0.000000 1.000000
vn 0.000000 0.000000 1.000000
vn 0.000000 0.000000 1.000000
vn 0.000000 0.000000 1.000000
vn 0.000000 0.000000 1.000000
vn 0.000000 0.000000 1.000000
vn 0.000000 0.000000 1.000000
vn 0.000000 0.000000 1.000000
vn 0.000000 0.000000 1.000000
vn 0.000000 0.000000 1.000000
vn 0.000000 0.000000 1.000000
vn 0.000000 0.000000 1.000000
vn 0.000000 0.000000 1.000000
vn 0.000000 0.000000 1.000000
vn 0.000000 0.000000 1.000000
vn 0.000000 0.000000 1.000000
vn 0.000000 0.000000 1.000000
vn 0.000000 0.000000 1.000000
vn 0.000000 0.000000 1.000000
vn 0.000000 0.000000 1.000000
vn 0.000000 0.000000 1.000000
vn 0.000000 0.000000 1.000000
vn 0.000000 0.000000 1.000000
vn 0.000000 0.000000 1.000000
vn 0.000000 0.000000 1.000000
vn 0.000000 0.000000 1.000000
vn 0.000000 0.000000 1.000000
vn 0.000000 0.000000 1.000000
vn 0.000000 0.000000 1.000000
vn 0.000000 0.000000 1.000000
vn 0.000000 0.000000 1.000000
vn 0.000000 0.000000 1.000000
vn 0.000000 0.000000 1.000000
vn 0.000000 0.000000 1.000000
vn 0.000000 0.000000 1.000000
vn 0.000000 0.000000 1.000000
vn 0.000000 0.000000 1.000000
vn -1.000000 0.000000 0.000000
vn -1.000000 0.000000 0.000000
vn -1.000000 0.000000 0.000000
vn -1.000000 0.000000 0.000000
vn -1.000000 0.000000 0.000000
vn -1.000000 0.000000 0.000000
vn -1.000000 0.000000 0.000000
vn -1.000000 0.000000 0.000000
vn -1.000000 0.000000 0.000000
vn -1.000000 0.000000 0.000000
vn -1.000000 0.000000 0.000000
vn -1.000000 0.000000 0.000000
vn -1.000000 0.000000 0.000000
vn -1.000000 0.000000 0.000000
vn -1.000000 0.000000 0.000000
vn -1.000000 0.000000 0.000000
vn -1.000000 0.000000 0.000000
vn -1.000000 0.000000 0.000000
vn -1.000000 0.000000 0.000000
vn -1.000000 0.000000 0.000000
vn -1.000000 0.000000 0.000000
vn -1.000000 0.000000 0.000000
vn -1.000000 0.000000 0.000000
vn -1.000000 0.000000 0.000000
vn -1.000000 0.000000 0.000000
vn -1.000000 0.000000 0.000000
vn -1.000000 0.000000 0.000000
vn -1.000000 0.000000 0.000000
vn -1.000000 0.000000 0.000000
vn -1.000000 0.000000 0.000000
vn -1.000000 0.000000 0.000000
vn -1.000000 0.000000 0.000000
vn -1.000000 0.000000 0.000000
vn -1.000000 0.000000 0.000000
vn -1.000000 0.000000 0.000000
vn -1.000000 0.000000 0.000000
vn -1.000000 0.000000 0.000000
vn -1.000000 0.000000 0.000000
vn -1.000000 0.000000 0.000000
s 1
g Watermelon2
usemtl lambert5SG
f 1/1/1 2/2/2 6/3/3 5/4/4
f 2/2/2 3/5/5 7/6/6 6/3/3
f 3/5/5 4/7/7 8/8/8 7/6/6
f 4/7/7 96/139/9 97/138/10 8/8/8
f 77/158/11 1/1/1 5/4/4 78/157/12
f 5/4/4 6/3/3 10/13/13 9/14/14
f 6/3/3 7/6/6 11/15/15 10/13/13
f 7/6/6 8/8/8 12/16/16 11/15/15
f 8/8/8 97/138/10 99/137/17 12/16/16
f 78/157/12 5/4/4 9/14/14 79/156/18
f 9/14/14 10/13/13 14/19/19 13/20/20
f 10/13/13 11/15/15 15/21/21 14/19/19
f 11/15/15 12/16/16 16/22/22 15/21/21
f 12/16/16 99/137/17 100/136/23 16/22/22
f 79/156/18 9/14/14 13/20/20 80/155/24
f 13/20/20 14/19/19 18/25/25 17/26/26
f 14/19/19 15/21/21 19/27/27 18/25/25
f 15/21/21 16/22/22 20/28/28 19/27/27
f 16/22/22 100/136/23 101/135/29 20/28/28
f 80/155/24 13/20/20 17/26/26 81/154/30
f 17/26/26 18/25/25 22/31/31 21/32/32
f 18/25/25 19/27/27 23/33/33 22/31/31
f 19/27/27 20/28/28 24/34/34 23/33/33
f 20/28/28 101/135/29 102/134/35 24/34/34
f 81/154/30 17/26/26 21/32/32 82/153/36
f 21/32/32 22/31/31 26/37/37 25/38/38
f 22/31/31 23/33/33 27/39/39 26/37/37
f 23/33/33 24/34/34 28/40/40 27/39/39
f 24/34/34 102/134/35 103/133/41 28/40/40
f 82/153/36 21/32/32 25/38/38 83/152/42
f 25/38/38 26/37/37 30/43/43 29/44/44
f 26/37/37 27/39/39 31/45/45 30/43/43
f 27/39/39 28/40/40 32/46/46 31/45/45
f 28/40/40 103/133/41 104/132/47 32/46/46
f 83/152/42 25/38/38 29/44/44 84/151/48
f 29/44/44 30/43/43 34/49/49 33/50/50
f 30/43/43 31/45/45 35/51/51 34/49/49
f 31/45/45 32/46/46 36/52/52 35/51/51
f 32/46/46 104/132/47 105/131/53 36/52/52
f 84/151/48 29/44/44 33/50/50 85/150/54
f 33/50/50 34/49/49 38/55/55 37/56/56
f 34/49/49 35/51/51 39/57/57 38/55/55
f 35/51/51 36/52/52 40/58/58 39/57/57
f 36/52/52 105/131/53 106/130/59 40/58/58
f 85/150/54 33/50/50 37/56/56 86/60/60
f 37/56/56 38/55/55 42/61/61 41/62/62
f 38/55/55 39/57/57 43/63/63 42/61/61
f 39/57/57 40/58/58 44/64/64 43/63/63
f 40/58/58 106/130/59 107/129/65 44/64/64
f 86/60/60 37/56/56 41/62/62 87/148/66
f 41/62/62 42/61/61 46/67/67 45/68/68
f 42/61/61 43/63/63 47/69/69 46/67/67
f 43/63/63 44/64/64 48/70/70 47/69/69
f 44/64/64 107/129/65 108/128/71 48/70/70
f 87/148/66 41/62/62 45/68/68 88/147/72
f 45/68/68 46/67/67 50/73/73 49/74/74
f 46/67/67 47/69/69 51/75/75 50/73/73
f 47/69/69 48/70/70 52/76/76 51/75/75
f 48/70/70 108/128/71 109/127/77 52/76/76
f 88/147/72 45/68/68 49/74/74 89/146/78
f 49/74/74 50/73/73 54/79/79 53/80/80
f 50/73/73 51/75/75 55/81/81 54/79/79
f 51/75/75 52/76/76 56/82/82 55/81/81
f 52/76/76 109/127/77 110/126/83 56/82/82
f 89/146/78 49/74/74 53/80/80 90/145/84
f 53/80/80 54/79/79 58/85/85 57/86/86
f 54/79/79 55/81/81 59/87/87 58/85/85
f 55/81/81 56/82/82 60/88/88 59/87/87
f 56/82/82 110/126/83 111/125/89 60/88/88
f 90/145/84 53/80/80 57/86/86 91/144/90
f 57/86/86 58/85/85 62/91/91 61/92/92
f 58/85/85 59/87/87 63/93/93 62/91/91
f 59/87/87 60/88/88 64/94/94 63/93/93
f 60/88/88 111/125/89 112/124/95 64/94/94
f 91/144/90 57/86/86 61/92/92 92/143/96
f 61/92/92 62/91/91 66/97/97 65/98/98
f 62/91/91 63/93/93 67/99/99 66/97/97
f 63/93/93 64/94/94 68/100/100 67/99/99
f 64/94/94 112/124/95 113/123/101 68/100/100
f 92/143/96 61/92/92 65/98/98 93/142/102
f 65/98/98 66/97/97 70/103/103 69/104/104
f 66/97/97 67/99/99 71/105/105 70/103/103
f 67/99/99 68/100/100 72/106/106 71/105/105
f 68/100/100 113/123/101 114/122/107 72/106/106
f 93/142/102 65/98/98 69/104/104 94/141/108
f 69/104/104 70/103/103 74/109/109 73/110/110
f 70/103/103 71/105/105 75/111/111 74/109/109
f 71/105/105 72/106/106 76/112/112 75/111/111
f 72/106/106 114/122/107 115/121/113 76/112/112
f 94/141/108 69/104/104 73/110/110 95/140/114
f 2/2/2 1/1/1 98/117/115
f 3/5/5 2/2/2 98/117/115
f 4/7/7 3/5/5 98/117/115
f 96/139/9 4/7/7 98/117/115
f 1/1/1 77/158/11 98/117/115
f 73/110/110 74/109/109 116/119/116
f 74/109/109 75/111/111 116/119/116
f 75/111/111 76/112/112 116/119/116
f 76/112/112 115/121/113 116/119/116
f 95/140/114 73/110/110 116/119/116
s off
usemtl lambert4SG
f 98/115/117 77/11/118 95/114/119 116/120/120
f 77/11/121 78/12/122 94/108/123 95/114/124
f 78/12/125 79/18/126 93/102/127 94/108/128
f 79/18/129 80/24/130 92/96/131 93/102/132
f 80/24/133 81/30/134 91/90/135 92/96/136
f 81/30/137 82/36/138 90/84/139 91/90/140
f 82/36/141 83/42/142 89/78/143 90/84/144
f 83/42/145 84/48/146 88/72/147 89/78/148
f 84/48/149 85/54/150 87/66/151 88/72/152
f 85/54/153 86/149/154 87/66/155
f 97/10/156 96/9/157 115/113/158 114/107/159
f 96/9/160 98/118/161 116/116/162 115/113/163
f 99/17/164 97/10/165 114/107/166 113/101/167
f 100/23/168 99/17/169 113/101/170 112/95/171
f 101/29/172 100/23/173 112/95/174 111/89/175
f 102/35/176 101/29/177 111/89/178 110/83/179
f 103/41/180 102/35/181 110/83/182 109/77/183
f 104/47/184 103/41/185 109/77/186 108/71/187
f 105/53/188 104/47/189 108/71/190 107/65/191
f 106/59/192 105/53/193 107/65/194
