# This file uses centimeters as units for non-parametric coordinates.

mtllib FloorInsideBend_LP.mtl
g default
v -2.500000 0.000000 0.000000
v -2.377642 0.000000 -0.772543
v -2.022543 0.000000 -1.469464
v -1.469464 0.000000 -2.022543
v -0.772543 0.000000 -2.377642
v 0.000000 0.000000 -2.500001
v 0.000000 0.000000 0.000000
vt 0.166667 0.000000
vt 0.207453 0.257514
vt 0.325819 0.489821
vt 0.510179 0.674181
vt 0.742486 0.792547
vt 1.000000 0.833334
vt 1.000000 0.000000
vn 0.000000 1.000000 0.000000
vn 0.000000 1.000000 0.000000
vn 0.000000 1.000000 0.000000
vn 0.000000 1.000000 0.000000
vn 0.000000 1.000000 0.000000
vn 0.000000 1.000000 0.000000
vn 0.000000 1.000000 0.000000
s off
g Floor_InsideBend
usemtl initialShadingGroup
f 1/1/1 7/7/2 6/6/3 5/5/4 4/4/5 3/3/6 2/2/7
