# This file uses centimeters as units for non-parametric coordinates.

mtllib FloorInsideBend2_LP.mtl
g default
v 0.977457 0.000000 -1.469464
v 1.530536 0.000000 -2.022543
v 2.227457 0.000000 -2.377642
v 0.622358 0.000000 -0.772543
v 3.000000 0.000000 -2.500001
v 0.500000 0.000000 0.000000
v 0.000000 0.000000 0.000000
v 3.000000 0.000000 -3.000000
v 0.000000 0.000000 -3.000000
vt 0.000000 0.000000
vt 0.166667 0.000000
vt 0.207453 0.257514
vt 0.325819 0.489821
vt 0.510179 0.674181
vt 0.742486 0.792547
vt 1.000000 0.833334
vt 1.000000 1.000000
vt 0.000000 1.000000
vn 0.000000 1.000000 0.000000
vn 0.000000 1.000000 0.000000
vn 0.000000 1.000000 0.000000
vn 0.000000 1.000000 0.000000
vn 0.000000 1.000000 0.000000
vn 0.000000 1.000000 0.000000
vn 0.000000 1.000000 0.000000
vn 0.000000 1.000000 0.000000
vn 0.000000 1.000000 0.000000
s off
g Floor_InsideBend2
usemtl initialShadingGroup
f 7/1/1 6/2/2 4/3/3 1/4/4 2/5/5 3/6/6 5/7/7 8/8/8 9/9/9
