# This file uses centimeters as units for non-parametric coordinates.

mtllib RampWall_LP.mtl
g default
v -1.000000 -0.998992 0.000000
v -0.500000 -0.998992 0.000000
v 0.000000 -0.998992 0.000000
v -1.000000 0.001008 0.000000
v -0.500000 0.001008 0.000000
v 0.000000 -0.398992 0.000000
v -1.000000 1.000000 -3.000000
v -0.500000 1.000000 -3.000000
v 0.000000 0.600000 -3.000000
v -1.000000 0.000000 -3.000000
v -0.500000 0.000000 -3.000000
v 0.000000 0.000000 -3.000000
vt 0.816792 0.009806
vt 0.898078 0.009806
vt 0.898078 0.172378
vt 0.816792 0.172378
vt 0.979364 0.009806
vt 0.979364 0.107349
vt 0.305231 0.491624
vt 0.223946 0.491302
vt 0.225880 0.003590
vt 0.307165 0.003913
vt 0.222516 0.491465
vt 0.120091 0.491465
vt 0.120091 0.003750
vt 0.222516 0.003750
vt 0.812135 0.172720
vt 0.730850 0.172378
vt 0.731532 0.009808
vt 0.812817 0.010149
vt 0.649837 0.107009
vt 0.650247 0.009467
vt 0.473824 0.003750
vt 0.555110 0.003750
vt 0.555110 0.491465
vt 0.473824 0.491465
vt 0.636396 0.003750
vt 0.636396 0.491465
vt 0.019644 0.491465
vt 0.019644 0.003750
vt 0.471844 0.003998
vt 0.470363 0.491711
vt 0.307792 0.491217
vt 0.309273 0.003504
vn 0.000000 0.000000 1.000000
vn 0.000000 0.000000 1.000000
vn 0.000000 0.000000 1.000000
vn 0.000000 0.000000 1.000000
vn 0.000000 0.000000 1.000000
vn 0.000000 0.000000 1.000000
vn 0.000000 0.000000 1.000000
vn 0.000000 0.000000 1.000000
vn 0.000000 0.948779 0.315941
vn 0.000000 0.948779 0.315941
vn 0.000000 0.948779 0.315941
vn 0.000000 0.948779 0.315941
vn 0.604590 0.755737 0.251658
vn 0.604590 0.755737 0.251658
vn 0.604590 0.755737 0.251658
vn 0.604590 0.755737 0.251658
vn 0.000000 0.000000 -1.000000
vn 0.000000 0.000000 -1.000000
vn 0.000000 0.000000 -1.000000
vn 0.000000 0.000000 -1.000000
vn 0.000000 0.000000 -1.000000
vn 0.000000 0.000000 -1.000000
vn 0.000000 0.000000 -1.000000
vn 0.000000 0.000000 -1.000000
vn 0.000000 -0.948779 -0.315941
vn 0.000000 -0.948779 -0.315941
vn 0.000000 -0.948779 -0.315941
vn 0.000000 -0.948779 -0.315941
vn 0.000000 -0.948779 -0.315941
vn 0.000000 -0.948779 -0.315941
vn 0.000000 -0.948779 -0.315941
vn 0.000000 -0.948779 -0.315941
vn 1.000000 0.000000 0.000000
vn 1.000000 0.000000 0.000000
vn 1.000000 0.000000 0.000000
vn 1.000000 0.000000 0.000000
vn -1.000000 0.000000 0.000000
vn -1.000000 0.000000 0.000000
vn -1.000000 0.000000 0.000000
vn -1.000000 0.000000 0.000000
s off
g Wall_LP_1_:Wall
usemtl initialShadingGroup
f 1/1/1 2/2/2 5/3/3 4/4/4
f 2/2/5 3/5/6 6/6/7 5/3/8
f 4/7/9 5/8/10 8/9/11 7/10/12
f 5/11/13 6/12/14 9/13/15 8/14/16
f 7/15/17 8/16/18 11/17/19 10/18/20
f 8/16/21 9/19/22 12/20/23 11/17/24
f 10/21/25 11/22/26 2/23/27 1/24/28
f 11/22/29 12/25/30 3/26/31 2/23/32
f 3/27/33 12/28/34 9/13/35 6/12/36
f 10/29/37 1/30/38 4/31/39 7/32/40
